<?xml version="1.0" standalone="no"?>
<!DOCTYPE svg PUBLIC "-//W3C//DTD SVG 20010904//EN"
 "http://www.w3.org/TR/2001/REC-SVG-20010904/DTD/svg10.dtd">
<svg version="1.0" xmlns="http://www.w3.org/2000/svg"
 width="999.000000pt" height="1036.000000pt" viewBox="0 0 999.000000 1036.000000"
 preserveAspectRatio="xMidYMid meet">

<g transform="translate(0.000000,1036.000000) scale(0.100000,-0.100000)"
fill="#000000" stroke="none">
<path d="M4745 10224 c-384 -144 -571 -230 -726 -333 l-87 -59 2 107 1 106
-32 3 c-35 4 -52 -9 -203 -153 -47 -45 -107 -97 -135 -116 l-50 -34 -118 3
c-136 4 -195 -9 -297 -65 -113 -63 -251 -225 -275 -326 -12 -46 -34 -51 -190
-41 -213 13 -266 10 -316 -14 -24 -12 -107 -77 -184 -144 -159 -138 -766 -737
-795 -784 -11 -17 -36 -77 -56 -134 -19 -57 -46 -124 -59 -150 -36 -71 -155
-200 -366 -396 -107 -100 -227 -216 -267 -258 -275 -290 -393 -587 -492 -1234
-52 -338 -80 -513 -90 -559 -10 -43 -8 -47 99 -266 120 -244 181 -391 236
-572 37 -122 95 -389 95 -437 0 -44 -34 -71 -85 -66 l-43 3 -6 -70 c-7 -84 8
-262 27 -325 21 -66 67 -174 284 -663 211 -477 323 -751 398 -974 39 -119 51
-143 67 -143 52 0 135 -79 156 -147 7 -21 23 -88 36 -148 78 -359 253 -596
514 -693 60 -22 88 -26 277 -32 255 -9 295 -20 406 -115 68 -58 209 -128 314
-155 47 -12 122 -22 180 -24 l100 -3 262 -136 c292 -152 382 -201 499 -276 87
-56 129 -64 159 -31 27 30 35 16 35 -61 0 -53 3 -69 14 -69 8 0 90 9 183 20
301 35 455 43 712 37 256 -5 391 -21 565 -67 75 -20 82 -20 147 -5 37 8 88 15
112 15 97 0 264 -59 400 -142 51 -31 66 -35 119 -34 72 1 90 17 71 65 -8 23
-8 33 1 40 41 34 329 111 415 111 38 0 65 -21 135 -110 28 -35 91 -80 112 -80
8 0 10 20 7 63 -6 83 14 154 50 181 25 19 42 21 143 20 l114 -1 0 91 c0 72 4
97 19 121 33 52 414 429 455 450 l38 19 79 -84 78 -85 1 45 c0 58 -45 153 -95
200 -41 39 -69 86 -60 100 10 16 198 72 246 73 33 1 59 -7 93 -27 l47 -28 -15
31 c-47 90 6 131 181 141 101 5 115 8 139 30 39 37 65 95 71 159 5 49 12 64
55 116 341 414 502 654 680 1010 98 194 275 611 265 622 -8 8 -157 -119 -217
-185 -34 -37 -91 -112 -128 -166 -77 -115 -111 -138 -164 -111 -17 8 -32 15
-34 15 -2 0 -17 -45 -34 -100 -17 -55 -32 -100 -34 -100 -1 0 -1 36 2 81 l5
80 -249 -192 c-505 -391 -977 -733 -1386 -1005 -136 -91 -267 -174 -290 -184
-88 -40 -167 -16 -198 60 l-13 30 -62 -55 c-77 -68 -104 -79 -135 -58 -19 13
-22 23 -18 62 l5 46 -82 -1 c-45 0 -87 -4 -94 -9 -7 -4 -22 -27 -32 -51 -11
-24 -24 -46 -29 -49 -5 -3 -21 12 -35 35 -14 22 -29 40 -34 40 -5 0 -15 -39
-22 -87 -11 -78 -13 -84 -21 -56 -15 58 -45 53 -88 -14 l-28 -44 -55 78 c-30
43 -66 88 -79 101 l-25 23 18 -53 c31 -91 21 -141 -20 -97 l-20 22 -5 -24 c-3
-13 -7 -44 -10 -68 -3 -29 -11 -48 -23 -54 -9 -6 -48 -39 -85 -74 -37 -35 -75
-63 -85 -63 -102 -1 -400 -45 -553 -82 l-86 -20 -154 35 c-341 79 -626 124
-995 157 -126 12 -272 30 -324 42 -179 38 -375 117 -554 223 l-79 46 44 28
c46 30 78 80 78 124 0 32 -16 44 -24 19 -9 -29 -73 -58 -164 -77 l-83 -17
-117 114 c-64 62 -279 264 -477 447 -554 515 -1007 976 -1112 1131 -50 74
-110 201 -203 430 -103 252 -137 330 -144 330 -4 0 -15 -9 -26 -20 -24 -24
-63 -26 -85 -4 -28 29 -55 92 -55 132 0 68 56 103 108 66 12 -8 22 -12 22 -7
1 4 -23 174 -52 377 -59 417 -59 417 7 548 74 147 71 131 145 797 72 655 89
768 145 959 154 527 441 948 1010 1481 453 423 471 439 625 528 52 31 203 120
335 198 535 317 723 411 1010 505 291 94 466 121 845 127 315 5 367 12 408 56
45 48 57 107 54 264 l-2 71 -35 -10 c-48 -15 -104 8 -187 77 -65 54 -158 106
-188 104 -8 0 -91 -30 -185 -65z m-3907 -6456 c11 -13 37 -58 56 -100 20 -43
52 -113 72 -155 19 -43 42 -86 51 -95 22 -25 9 -22 -46 7 -61 34 -90 78 -101
156 -5 36 -23 91 -42 128 -18 36 -34 69 -36 74 -8 16 26 5 46 -15z m-102 -98
c18 -57 32 -105 31 -107 -5 -5 -127 156 -127 168 0 19 32 50 49 47 9 -2 27
-42 47 -108z"/>
<path d="M6535 9960 c-189 -5 -202 -6 -233 -28 -18 -13 -41 -41 -52 -62 l-19
-38 -38 14 c-46 16 -232 18 -301 3 -58 -12 -121 -61 -146 -113 -20 -42 -21
-125 -2 -171 45 -107 244 -247 426 -298 86 -25 226 -47 297 -47 61 0 71 -4
169 -60 344 -198 616 -379 1239 -825 252 -180 474 -337 492 -348 52 -30 122
-20 236 35 l94 46 6 -122 c6 -137 26 -217 106 -421 53 -136 102 -211 170 -260
193 -137 239 -209 249 -383 4 -75 0 -111 -18 -186 l-22 -93 53 -103 c112 -219
270 -419 385 -486 14 -8 19 -28 25 -83 6 -74 30 -123 62 -129 9 -2 34 13 56
34 23 20 41 34 41 31 0 -3 -9 -83 -20 -178 -28 -236 -28 -495 -1 -547 4 -7 13
49 20 125 28 311 75 570 142 779 22 69 38 128 35 131 -11 12 -56 -29 -92 -84
-22 -32 -50 -63 -64 -70 l-25 -12 -7 172 c-3 95 -12 237 -18 317 -12 161 -98
858 -107 874 -3 6 -236 379 -517 830 -503 805 -513 820 -616 929 -345 364
-821 636 -1355 777 -190 50 -303 59 -650 50z"/>
<path d="M4100 7710 l0 -280 850 0 850 0 0 -1807 c0 -1163 -4 -1850 -11 -1926
-13 -152 -48 -289 -101 -396 -81 -166 -249 -298 -436 -346 -208 -53 -503 -30
-665 51 -194 98 -341 312 -422 618 -14 49 -27 91 -29 94 -6 5 -547 -127 -558
-137 -4 -4 3 -52 16 -106 73 -298 211 -556 401 -749 216 -219 471 -326 853
-357 482 -39 928 105 1213 392 205 207 324 466 358 781 8 65 11 818 11 2273
l0 2175 -1165 0 -1165 0 0 -280z"/>
</g>
</svg>
